<svg xmlns="http://www.w3.org/2000/svg" width="660" height="660" fill="none">
  <g clip-path="url(#a)">
    <circle cx="330" cy="330" r="330" fill="#FBCE51"/>
    <g style="mix-blend-mode:overlay">
      <path fill="#313131" d="m472.54 613.06-.4-.82 1.5-1.03-4.18-8.35-.33 2.76-1.9 8.25.18.46 1.56-.5.39.82-4.6 2.33-.39-.82 1.25-.88-5.14-10.44-1.47.52-.39-.82 4.7-2.3.39.81-1.35.86 4.25 8.47.28-2.57 1.95-8.44-.34-.6-1.69.57-.39-.82 4.7-2.3.39.81-1.35.86 5.14 10.44 1.44-.43.4.82-4.6 2.34ZM461.16 618.26c-.5.37-.87.58-1.23.79-.36.2-.72.42-1.06.53-1.4.64-2.6.93-3.57.77a2.55 2.55 0 0 1-2.1-1.68 3.37 3.37 0 0 1-.12-2.58c.33-.83.91-1.48 1.66-2-1.04.44-1.97.5-2.82.27a3.2 3.2 0 0 1-1.79-1.7c-.57-1.28-.6-2.3-.13-3.3s1.5-1.84 3.14-2.62c.7-.32 1.37-.55 1.9-.61a6.78 6.78 0 0 1 1.39-.24c.3-.02.52-.06.62-.04l1 3.12-.82.4-1.5-2.04c-.69-.08-1.45.12-2.49.56-.79.3-1.23.79-1.4 1.45-.18.67-.08 1.41.3 2.32.31.7.78 1.23 1.42 1.5.64.28 1.48.2 2.51-.24l1.16-.5.46.94-1.04.43c-.45.18-.84.49-1.25.89-.32.42-.54.87-.67 1.35-.03.5 0 1.12.26 1.7.3.79.79 1.23 1.36 1.38.57.15 1.22.02 2-.28.49-.28.95-.46 1.24-.79.3-.33.46-.59.51-.78l-.35-1.72 1.06-.53 1.34 2.6c-.12.07-.48.27-.99.65ZM445.94 623.75l1.5-.3.37.9-2.38.9c-.36.2-.9.37-1.49.62-.57.25-.93.46-1.18.6-1.58.6-2.85.76-3.7.53a2.63 2.63 0 0 1-1.86-1.82c-.3-.8-.38-1.63-.08-2.36.2-.76.79-1.42 1.51-1.84-1.13.41-2.08.56-2.91.24a2.98 2.98 0 0 1-1.83-1.92 3.55 3.55 0 0 1 .17-3.31c.6-1.07 1.75-1.98 3.68-2.68.45-.19.79-.3 1.22-.39.89-.27 1.46-.52 1.68-.57l2.28-.91.27.88-1.42.74 4.17 10.7Zm-7.9-9.65c-1.16.5-1.91 1.02-2.3 1.73-.4.7-.29 1.45-.02 2.33.37.92.84 1.45 1.48 1.72.64.28 1.47.2 2.5-.24 1.16-.5 1.93-.7 2.29-.92l-1.97-5.2c-.4-.01-.98.24-1.99.58Zm3.26 6.07-.92.36c-.79.3-1.32.77-1.6 1.4-.27.65-.26 1.37.14 2.18.3.8.76 1.33 1.3 1.58.55.24 1.39.16 2.42-.27.46-.19.82-.4 1.27-.58l.37-.2-1.86-4.88c-.24.14-.57.25-1.12.4ZM431.1 630.47l-1.92.71-8.41-10.8-1.17.19-.28-.9 4.7-1.58.28.88-1.4.65 1.7 2.4 5.17-1.78-.05-2.87-1.6.28-.27-.88 4.24-1.41.27.89-1.06.53-.2 13.7ZM429.1 628l.96 1.38-.14-1.77-.16-6.25-4.49 1.54 3.83 5.1ZM416.48 621.16a5.2 5.2 0 0 1 2.79 1.76c.77.92 1.4 2 1.73 3.42.36 1.32.44 2.56.2 3.82a5.47 5.47 0 0 1-1.63 3.03 7.61 7.61 0 0 1-3.03 1.83c-.9.28-2.06.47-3.4.52l-.62.04-.76-3.26 1.22-.39 1.16 2.15c.2.05.57.15.98.16.4 0 .95-.15 1.6-.29.77-.2 1.4-.64 1.86-1.23a4.1 4.1 0 0 0 .83-2.32 10.3 10.3 0 0 0-1.74-6.07 5.36 5.36 0 0 0-1.98-1.75 3.73 3.73 0 0 0-2.5-.17c-.64.14-1.13.42-1.37.56a2.6 2.6 0 0 0-.7.72l-.23 1.98-1.17.2-.31-2.63c.21-.05.57-.26 1.06-.54.38-.3.74-.5 1.2-.7.36-.2.91-.36 1.47-.52a4.65 4.65 0 0 1 3.34-.32ZM402.4 635.72a6.93 6.93 0 0 1-1.62 2.62c-.8.7-1.65 1.19-2.6 1.34-1.2.29-2.3.2-3.22-.15a5.56 5.56 0 0 1-2.45-1.88 7.48 7.48 0 0 1-1.45-3.34c-.3-1.5-.36-2.85-.15-4.01.24-1.26.8-2.23 1.53-3.05a5.57 5.57 0 0 1 2.77-1.6c1.2-.3 2.33-.3 3.35.08 1.01.37 1.77.98 2.47 1.78.68.9 1.2 1.95 1.45 3.34l2.92-.64-1.22-5.32-1.58.19-.18-.87 5.01-1.2.18.86-1.47.53 2.68 11.3 1.45-.11.18.86-4.89 1.13-.17-.86 1.46-.52-1.13-4.89-2.95.74c.02 1.43-.1 2.62-.37 3.67Zm-2.07.87c.43-1.21.43-2.74-.04-4.8-.45-1.75-1.1-3.14-1.99-4a3.38 3.38 0 0 0-3.2-.95c-1.2.29-1.9 1.01-2.3 2.13-.4 1.11-.34 2.76.13 4.82.45 1.75 1 3.12 1.89 3.97a2.83 2.83 0 0 0 3.02.91 2.88 2.88 0 0 0 2.49-2.08ZM381.12 634.9c-.56-.55-1.38-1.28-2.25-2.23-.63-.68-1-1.18-1.34-1.47-.33-.3-.59-.47-.78-.52l-.69-.08-.17-.87 2.25-.41c.3-.02.66.18 1.06.59s1.03 1.1 1.71 1.99a26.6 26.6 0 0 0 2.04 2.27c.47.54.92.76 1.35.67l1.17-.2-.94-5.24-1.65.07-.17-.86 5.02-.9.15.96-1.43.43 2.02 11.44H390l.15.96-4.9.83-.1-1.15 1.46-.52-.91-5.34-1.6.28-2.83 5.97 1.56-.1.15.96-4.5.83-.16-.96 1.44-.42 3.06-6.11c-.5-.03-1.11-.4-1.7-.86ZM372.77 630.73c1 .47 1.72 1.18 2.25 2.24.56.96.94 2.18 1.18 3.57a7.6 7.6 0 0 1-.33 3.89 6.7 6.7 0 0 1-1.86 2.76 6.27 6.27 0 0 1-3.1 1.3c-1.91.3-3.53-.13-4.65-1.24a7.64 7.64 0 0 1-2.16-4.86 7.96 7.96 0 0 1 .32-3.88 7.07 7.07 0 0 1 1.89-2.86 6.94 6.94 0 0 1 3.1-1.3 5.81 5.81 0 0 1 3.36.38Zm.77 10.8c.52-1.18.71-2.66.46-4.76a7.97 7.97 0 0 0-1.6-4.3 3.04 3.04 0 0 0-3.03-1.22c-1.17.2-2.04.77-2.56 1.96a8.8 8.8 0 0 0-.46 4.76c.2 1.9.75 3.26 1.62 4.2a3.2 3.2 0 0 0 3.03 1.23c1.13 0 2.02-.68 2.54-1.87ZM361.4 644.29l1.5.1.05.93-2.5.24c-.41 0-.96.15-1.59.19-.64.13-1.05.12-1.26.17-1.68.16-2.96.02-3.74-.5a2.94 2.94 0 0 1-1.32-2.28 3.9 3.9 0 0 1 .51-2.31 3.53 3.53 0 0 1 2-1.4 4.44 4.44 0 0 1-2.9-.57 2.8 2.8 0 0 1-1.22-2.27 3.98 3.98 0 0 1 1.05-3.18c.85-.89 2.22-1.44 4.3-1.6.43-.08.84-.08 1.34-.04.93-.06 1.55-.1 1.74-.05l2.51-.24.06.93-1.51.31.97 11.57Zm-5-11.42c-1.23.07-2.15.44-2.61 1.03-.56.56-.76 1.32-.61 2.28.05.93.38 1.63.9 1.97a3.7 3.7 0 0 0 2.42.45c1.24-.08 2.08-.16 2.42-.27l-.46-5.52c-.38-.1-1-.07-2.05.06Zm1.56 6.73-1.05.13c-.83.08-1.53.4-1.87.92a3.32 3.32 0 0 0-.47 2.12c.08.83.3 1.5.83 1.85.52.34 1.28.54 2.33.42.43-.1.93-.06 1.39-.24l.43-.09-.44-5.21c-.3.02-.62.04-1.15.1ZM332.04 647.02l-.06-.94 1.6-.28-.34-11.6-1.8-.18-.05-.93 5.23-.13.06.94-1.58.18.33 11.7 5.94-.13-.33-11.7-1.69-.15-.05-.93 5.22-.13.06.93-1.48.22.35 11.6 1.57.22.06.93-13.04.38ZM327.63 633.82a5.48 5.48 0 0 1 1.97 2.56c.43 1.03.6 2.3.62 3.73a8.48 8.48 0 0 1-.9 3.73 6.12 6.12 0 0 1-5.47 3.32 5.5 5.5 0 0 1-4.38-1.88c-.98-1.28-1.46-2.94-1.47-5.18a7.67 7.67 0 0 1 .93-3.83 6.48 6.48 0 0 1 2.3-2.54 6.3 6.3 0 0 1 3.3-.85c1.21.02 2.26.3 3.1.94Zm-.75 10.8c.69-1.04 1.1-2.57 1.13-4.6a9.14 9.14 0 0 0-.95-4.42 3.16 3.16 0 0 0-2.82-1.67 3.23 3.23 0 0 0-2.86 1.57c-.69 1.04-1.12 2.65-1.16 4.68 0 1.94.23 3.32.95 4.43a3.16 3.16 0 0 0 2.82 1.67 4.28 4.28 0 0 0 2.89-1.67ZM312.13 637.7c.36-1.73.79-2.94 1.42-3.79.32-.42.61-.75.97-.96.36-.2.8-.3 1.2-.29.6.06 1 .07 1.29.14v1.53c-.29-.08-.8-.11-1.39-.17-.19-.05-.4 0-.64.13-.24.14-.39.3-.54.47-1.1 1.44-1.7 4.44-1.98 8.94l-.1 1.5 2.14.38-.04.9-10.82-.66.04-.9 1.76-.14.77-11.61-1.85-.3.04-.9 5.7.4-.05.91-1.95.09-.77 11.6 3.81.21.15-1.69c.27-2.16.5-4.14.84-5.78ZM300.25 644.4l1.52.41-.13.88-9.51-1.02.07-2.93 1.1.09.33 1.82 4.62.63.58-5.25-3.07-.3-.4 1.51-1-.06.42-4.27 1 .07.07 1.64 3.05.41.57-5.55-5.3-.4-1.2 2.23-1.09-.5.87-3.23 10.29 1.13-.13.88h-1.53l-1.13 11.81ZM284.81 642.71l3.17.34 1.2-3.75 1.18.21-1.02 4.93-11.54-1.77.51-4.96 1.17.21.05 3.99 3.21.55 1.7-11.66-2.6-.6.14-.88 7.05 1.08-.13.88-2.41-.14-1.68 11.57ZM271.48 633.54l.88.13c.34-.11.75-.5 1.1-1.03.34-.52.92-1.18 1.44-1.96.51-.77.97-1.36 1.3-1.79.3-.42.55-.56.74-.5l2.52.46-.13.88-.75.11c-.21.04-.43.09-.72.42-.26.23-.7.73-1.17 1.32-.6.75-1.07 1.34-1.48 1.74a3 3 0 0 1-1.26.88c.8.42 1.37.98 1.7 1.68.32.7.4 1.53.24 2.5-.29 1.46-.95 2.4-1.86 2.77-1.01.34-2.25.41-3.9.08l-1.32-.36-1.33-.36-2.62-.5.13-.88 1.6.13 2.24-11.42-1.68-.56.13-.88 5.43 1.05-.14.88-1.78-.17-.9 4.85 1.6.53Zm-2.54 6.45 1.43.38c.97.16 1.69.15 2.29-.2.6-.35.97-.96 1.16-2.03.16-.98.07-1.81-.37-2.44-.44-.63-1.06-1-2-1.25-.98-.16-1.65-.34-1.96-.32l-1.1 5.61.55.25ZM258.36 637.66l3.19.65 1.49-3.67 1.23.33-1.48 4.8-11.3-2.73.92-4.94 1.15.3-.36 3.98 3.14.84 2.67-11.5-2.54-.79.23-.85 6.99 1.67-.23.85-2.45-.35-2.65 11.41ZM246.35 622.02c.8.82 1.24 1.86 1.43 3.03.2 1.17.06 2.46-.32 3.88a7.16 7.16 0 0 1-1.9 3.27c-.85.89-1.9 1.42-3 1.74-1.2.29-2.3.2-3.54-.14-.95-.25-1.94-.72-3.2-1.36l-.54-.25 1.15-3.15 1.23.33-.23 2.38c.14.24.4.41.76.6.35.2.9.45 1.47.6.76.21 1.47.2 2.24 0a3.88 3.88 0 0 0 1.93-1.52 7.8 7.8 0 0 0 1.39-2.9c.3-1.13.49-2.2.46-3.23a5.57 5.57 0 0 0-.72-2.64 3.19 3.19 0 0 0-2.05-1.46 6.99 6.99 0 0 0-1.55-.32c-.4 0-.74.11-.98.25l-1.22 1.5-1.09-.49 1.16-2.44c.29.08.7.09 1.2.12s.9.04 1.3.04c.41.01.98.16 1.55.32 1.24.33 2.3.92 3.07 1.84ZM227.92 630.01l.32-.83 1.83.4 3.09-8.86-2.18 1.66-7.21 4.49-.13.47 1.54.72-.32.83-4.84-1.7.32-.84 1.45.3 3.77-11.02-1.45-.7.33-.82 4.93 1.73-.32.83-1.64-.34-3.11 8.95 2.05-1.6 7.43-4.52.18-.67-1.64-.74.33-.83 4.93 1.73-.32.83-1.55-.31-3.76 11 1.34.68-.32.82-5.05-1.66ZM208.82 622.96l1.66-4.65 1.2.43-.9 3.73 3.75 1.62 4.36-10.96-2.98-1.4.32-.84 6.83 2.65-.32.83-2-.54-4.21 10.79 1.77.98-.32.83-9.16-3.47ZM206.28 620.65l1.2.84-.32.83-4.64-2.06.32-.83 1.53.4 2.03-4.55-6.02-2.63-2.03 4.55 1.3.86-.33.83-4.55-2.03.33-.83 1.42.38 4.7-10.66-1.33-.76.32-.84 4.55 2.04-.32.83-1.5-.5-2.25 5 6.01 2.63 2.26-5-1.42-.79.33-.83 4.73 2.08-.32.83-1.4-.47-4.6 10.68ZM188.57 613.77l-1.8-.9 1.71-13.59-.94-.66.42-.8 4.4 2.2-.42.8-1.5-.5-.45 2.83 4.85 2.42 2-2.12-1.4-.88.42-.8 3.95 1.97-.41.8-1.12-.4-9.7 9.63Zm.25-3.2-.34 1.64 1.17-1.31 4.37-4.53-4.21-2.15-1 6.35ZM181.26 600a13.98 13.98 0 0 1 2.92-2.9c.48-.27.81-.38 1.24-.47.41 0 .79.1 1.24.33.54.25.87.54 1.13.71l-.57 1.38c-.26-.18-.61-.37-1.23-.74a.63.63 0 0 0-.57-.15c-.21.04-.43.08-.67.22-1.54.81-3.42 3.26-5.7 7.23l-.77 1.33 1.8 1.3-.43.8-9.38-5.27.42-.8 1.66.64 5.68-10.19-1.56-1.02.42-.8 5.06 2.77-.42.8-1.72-.76-5.66 10.1 3.28 1.8.82-1.52c.89-1.8 1.94-3.45 3.01-4.8ZM153.21 593.3l.52-.78 1.63.74 6.2-9.85-1.34-1.07.52-.78 4.6 2.96-.51.78-1.54-.71-6.2 9.84 1.34 1.08-.52.77-4.7-2.99Zm12.82 1.6a5.6 5.6 0 0 1-2.41-2.8c-.35-1-.16-2.07.55-3.2a4.06 4.06 0 0 1 2.9-2.08c1.17-.2 2.4.14 3.73.9.17.14.36.2.52.34.17.15.33.3.52.34.59.47 1.1.81 1.53 1.13l2.17 1.4-.51.77-1.44-.69-6.2 9.85 1.14 1.02-.51.78-4.53-2.84.51-.78 1.73.76 2.3-3.66-2-1.25Zm5.34-5.5a4 4 0 0 0-.87-.54c-.88-.54-1.73-.77-2.5-.57-.77.2-1.42.74-2.08 1.69-.54.87-.74 1.63-.54 2.4.2.76.74 1.42 1.61 1.96l1.65 1.05 3.36-5.31c-.2-.36-.37-.51-.63-.68ZM146.78 587.29l1.03 1.1-.52.77-4.07-3.03.51-.78 1.42.8 3.03-4.09-5.28-3.86-3.03 4.08 1.03 1.1-.52.77-3.98-3 .52-.78 1.35.67 6.88-9.36-1.05-1 .51-.78 4.08 3.03-.52.78-1.32-.76-3.2 4.34 5.28 3.86 3.2-4.34-1.22-1.14.51-.78 4.18 3.05-.52.78-1.32-.76-6.98 9.33ZM130.94 576.83l-1.58-1.34 4.59-12.92-.78-.93.59-.65 3.86 3.07-.6.75-1.3-.85-1.03 2.67 4.26 3.49 2.46-1.58-1.13-1.12.59-.66 3.44 2.76-.59.65-1.06-.59-11.72 7.25Zm1-2.99-.62 1.57 1.4-1.05 5.22-3.5-3.68-3.02-2.32 6ZM119.83 565.81l1.31 1.58-.58.65-3.66-3.42 3.76-7.96 1.18-2.13-2 1.4-7.6 4.38-3.6-3.3.6-.66 1.69 1.27 6.82-9.48-1.08-1.3.58-.67 3.9 3.7-.58.66-1.37-.98-5.05 6.7-2.2 2.87 2.41-1.4 8.99-5.02.9.85-3.85 8.64-1.61 3.34 2.69-2.43 6.3-5.65-1.27-1.36.59-.66 3.6 3.3-.59.67-1.27-.95-9 7.36Z"/>
      <path fill="#313131" d="m103.5 551.86-1.42-1.5 6.12-12.21-.65-1 .68-.63 3.42 3.57-.68.63-1.27-.95-1.4 2.58 3.85 3.88 2.6-1.34-.98-1.28.67-.63 3.12 3.18-.67.63-.95-.66-12.43 5.73Zm1.4-2.89-.82 1.52 1.54-.81 5.66-2.87-3.36-3.44-3.03 5.6ZM97.3 543.48l.8 1.23-.69.63-1.64-1.87c-.33-.29-.63-.67-.96-.97-.5-.43-.96-.97-1.36-1.38-1.17-1.33-1.77-2.51-1.8-3.54-.03-1.03.5-1.9 1.48-2.86a4.54 4.54 0 0 1 4.93-.92c.83.32 1.58.93 2.29 1.73l.7.8c.23.27.37.5.47.53l3.07-2.74-1.59-2.05.68-.63 4.08 4.55-.68.63-1.15-1.02-8.63 7.88Zm2.34-7.22a3.82 3.82 0 0 0-2.22-1.2c-.79-.11-1.82.32-2.8 1.28-.8.7-1.19 1.41-1.17 2.13 0 .72.4 1.53 1.1 2.33.24.27.57.56.9.86.16.14.32.29.4.4l4.94-4.37c-.24-.27-.61-.78-1.15-1.43ZM97.6 525.63a4.9 4.9 0 0 1-.58 3.3 9.36 9.36 0 0 1-2.44 3.02 6.74 6.74 0 0 1-3.4 1.64c-1.16.2-2.38.17-3.47-.32a6.42 6.42 0 0 1-2.9-2.1c-.6-.78-1.26-1.77-1.86-2.95l-.25-.57 2.68-2.03.77.91-1.5 1.84c.04.22.06.53.24.98.2.37.49.85.86 1.36a3.54 3.54 0 0 0 1.91 1.22c.76.2 1.6.12 2.49-.15a8.22 8.22 0 0 0 2.77-1.6 9.88 9.88 0 0 0 2.16-2.37c.54-.88.87-1.7.88-2.52.01-.8-.28-1.6-.8-2.35-.37-.5-.8-.83-1.12-1.12a1.2 1.2 0 0 0-.93-.35l-1.9.62-.65-1 2.3-1.32c.16.15.49.44.91.76.43.32.78.51 1.11.8.33.3.63.68 1.13 1.12a5.1 5.1 0 0 1 1.59 3.18ZM67.13 507.07l.74-.5 1.15 1.42 7.82-5.24-2.74-.02-8.44-.84-.39.3.72 1.52-.75.52-2.81-4.32.74-.52 1.04 1.1 9.67-6.48-.74-1.42.75-.5 2.91 4.34-.75.5-1.07-1.3-7.94 5.31 2.55-.03 8.63.89.6-.35-.81-1.54.75-.52 2.9 4.35-.74.51-1-1.18-9.69 6.47.65 1.4-.75.5-3-4.37ZM60.5 496.44c-.4-.41-.7-.8-1.03-1.1-.33-.28-.44-.62-.68-.89a7.61 7.61 0 0 1-1.2-3.48c-.03-1.02.46-1.7 1.42-2.27a3.3 3.3 0 0 1 2.56-.43c.86.23 1.54.72 2.17 1.4-.55-.97-.8-1.95-.57-2.8.23-.86.72-1.54 1.47-2.06 1.1-.72 2.28-.91 3.3-.54 1.02.38 2 1.25 3 2.85.35.6.7 1.2.86 1.75.16.55.34 1.01.45 1.35.12.33.16.55.14.64l-2.91 1.36-.5-.84 1.78-1.67c-.01-.71-.31-1.5-.9-2.37-.4-.73-1-1.19-1.6-1.25a4.1 4.1 0 0 0-2.3.6c-.62.45-1.06.94-1.33 1.58-.18.67 0 1.53.58 2.4l.72 1.11-.87.58-.56-.96c-.28-.48-.6-.77-1.03-1.1-.42-.31-.9-.44-1.4-.47-.5-.03-1.05.13-1.65.47a2.4 2.4 0 0 0-1.22 1.51c-.06.6.07 1.24.49 1.97.28.48.58.87.94 1.06.32.3.6.37.82.33l1.69-.57.65.99-2.37 1.6c-.19-.05-.42-.31-.92-.75ZM53.16 482.04l.52 1.47-.82.39-1.22-2.26c-.21-.37-.5-.85-.87-1.35-.37-.51-.58-.87-.72-1.12a7.45 7.45 0 0 1-1.06-3.64c.14-.88.63-1.56 1.59-2.12.82-.4 1.59-.6 2.35-.4.78.12 1.47.6 2 1.26-.53-1.06-.77-2.04-.54-2.9.22-.85.71-1.54 1.65-2a3.51 3.51 0 0 1 3.32-.23c1.12.4 2.15 1.5 3.17 3.4.2.36.39.81.6 1.17.39.82.64 1.4.8 1.55l1.17 2.14-.82.4-.89-1.26-10.23 5.5Zm3-5.1-.47-.94c-.42-.72-.88-1.25-1.55-1.43-.66-.18-1.31-.05-2.13.34-.72.42-1.25.89-1.4 1.46-.16.57.04 1.34.5 2.27l.7 1.2.2.37 4.63-2.43-.49-.84Zm5.64-3.99c-.62-1.08-1.25-1.76-1.99-2.06-.73-.3-1.48-.2-2.32.3-.84.48-1.38.95-1.46 1.64-.08.7.03 1.44.58 2.4.63 1.08.95 1.78 1.16 2.14l4.89-2.66c-.14-.24-.4-.82-.86-1.76ZM44.65 468.15l-.92-1.87 9.61-9.65-.31-1.1.82-.4 2.17 4.46-.82.39-.86-1.35-2.16 1.97 2.35 4.9 2.87-.45-.5-1.56.82-.39 1.9 3.97-.83.4-.65-1-13.49 1.68Zm2.17-2.37-1.33 1.17 1.72-.35 6.24-.88-2.1-4.33-4.53 4.39ZM52.03 452.4a6.18 6.18 0 0 1-1.4 3 9.6 9.6 0 0 1-3.15 2.2 7.28 7.28 0 0 1-3.73.63 6.8 6.8 0 0 1-3.25-1.17 6.72 6.72 0 0 1-2.2-2.83c-.36-.91-.68-2.02-.94-3.31l-.14-.65 3.17-1.18.5 1.15-2 1.4c-.05.19-.05.6.04 1.03.08.43.24.98.5 1.55.32.7.76 1.33 1.47 1.72.7.4 1.47.6 2.4.55.93-.06 2-.28 3.16-.79 1.04-.43 2-.99 2.8-1.7.8-.7 1.29-1.38 1.52-2.23.32-.83.24-1.67-.15-2.49a5.55 5.55 0 0 0-.77-1.32c-.23-.27-.47-.54-.85-.64L47 447.3l-.32-1.1 2.61-.63c.14.24.35.6.65.99.3.39.64.68.85 1.04.2.36.48.84.74 1.42.5 1.15.7 2.33.51 3.4ZM35.84 440.23a6.25 6.25 0 0 1-2.82-1.27 5.42 5.42 0 0 1-1.67-2.48 5.24 5.24 0 0 1-.26-3.23 5.12 5.12 0 0 1 1.52-2.65 8.62 8.62 0 0 1 3.04-1.83c1.47-.53 2.73-.7 3.95-.68 1.2.12 2.3.52 3.16 1.16a6.2 6.2 0 0 1 1.96 2.56c.4 1.13.5 2.27.32 3.34a4.91 4.91 0 0 1-1.55 2.75 8.92 8.92 0 0 1-3.06 1.93l1.07 2.83 5.1-1.9-.38-1.62.88-.27 1.76 4.84-.89.28-.74-1.42-10.85 4.01.3 1.51-.88.27-1.78-4.75.89-.27.74 1.42 4.75-1.78-1.07-2.84c-1.2.3-2.44.37-3.49.09Zm-1.14-1.84c1.24.33 2.82.15 4.76-.66 1.7-.66 2.94-1.45 3.72-2.46.78-1.02.97-2.09.55-3.22a3.25 3.25 0 0 0-2.4-2.06c-1.14-.31-2.74-.03-4.66.68a8.85 8.85 0 0 0-3.7 2.37 3.02 3.02 0 0 0-.52 3.12 2.95 2.95 0 0 0 2.25 2.23ZM34.05 419.17c.49-.68 1.12-1.53 2-2.52.58-.66 1.02-1.15 1.34-1.57.29-.33.36-.62.41-.81v-.72l.88-.27.73 2.23c.14.25-.09.7-.4 1.12-.35.52-.93 1.18-1.76 1.97-.87 1-1.58 1.72-2.04 2.3-.46.6-.59 1.07-.48 1.4l.32 1.11 5.11-1.58-.26-1.7.89-.27 1.54 4.9-.89.26-.64-1.4-11.11 3.45.21 1.48-.88.27-1.47-4.77.88-.27.65 1.4 5.1-1.6-.5-1.55-6.28-2 .28 1.61-.89.27-1.35-4.44.88-.27.67 1.3 6.43 2.24c-.11-.34.16-.98.63-1.57ZM37.04 410.3a5.54 5.54 0 0 1-1.9 2.54c-.9.68-2.08 1.28-3.4 1.64-1.41.33-2.66.4-3.82.2a6.05 6.05 0 0 1-2.96-1.5 5.47 5.47 0 0 1-1.67-2.9c-.52-1.87-.3-3.44.68-4.81.95-1.27 2.42-2.2 4.5-2.77a9.68 9.68 0 0 1 3.92-.17 6.4 6.4 0 0 1 3.06 1.53c.82.73 1.38 1.7 1.67 2.9.29 1.2.3 2.31-.08 3.34Zm-10.66 2.13c1.21.43 2.76.33 4.73-.16a7.88 7.88 0 0 0 4.02-2.08 3.2 3.2 0 0 0 .84-3.13c-.3-1.2-1.11-1.93-2.32-2.36-1.21-.43-2.86-.36-4.83.13a7.9 7.9 0 0 0-4.02 2.09 3.2 3.2 0 0 0-.84 3.13 4.16 4.16 0 0 0 2.42 2.38ZM22.19 400.71l.09 1.56-.86.17-.56-2.49c-.09-.43-.24-.98-.4-1.53-.16-.55-.34-1.01-.36-1.32-.35-1.73-.33-2.94 0-3.77.32-.83 1.06-1.34 2.05-1.59a4.03 4.03 0 0 1 2.38.23c.7.4 1.27.95 1.66 1.77-.29-1.2-.25-2.1.17-2.9a2.8 2.8 0 0 1 2.13-1.47 3.67 3.67 0 0 1 3.28.67c.94.66 1.68 2.08 2.08 4.02.09.43.18.86.17 1.27.15.96.3 1.5.35 1.72l.58 2.4-.86.18-.52-1.47-11.38 2.55Zm4.24-4.05-.25-.99c-.17-.86-.52-1.46-1.13-1.83-.52-.34-1.3-.45-2.2-.18-.86.18-1.46.52-1.7 1.07a3.9 3.9 0 0 0-.14 2.4c.08.44.17.87.36 1.33l.1.33 5.09-1.08c.05-.2-.07-.53-.13-1.05Zm6.44-2.35c-.3-1.2-.69-2.02-1.37-2.5-.59-.47-1.37-.58-2.36-.33-.95.15-1.58.59-1.83 1.13-.34.52-.38 1.43-.16 2.5.29 1.2.47 2.07.58 2.4l5.41-1.2c.08-.28-.05-.93-.27-2ZM15.72 372l.96-.16.5 1.56 11.49-1.81-.05-1.74.96-.16.84 5.22-.95.15-.4-1.53-11.5 1.8.96 5.97 11.58-1.79-.04-1.74.95-.15.75 5.19-.96.15-.43-1.44-11.48 1.81-.03 1.63-.96.15-2.19-13.12ZM28.36 365.9a5.6 5.6 0 0 1-2.24 2.26c-.96.55-2.18.94-3.64 1.06a9.16 9.16 0 0 1-3.86-.43 5.86 5.86 0 0 1-3.95-5.03c-.2-1.89.23-3.5 1.34-4.63 1.12-1.13 2.73-1.81 4.93-2.04a9.14 9.14 0 0 1 3.86.42 6.51 6.51 0 0 1 2.83 1.98 5.9 5.9 0 0 1 1.21 3.08 5.9 5.9 0 0 1-.48 3.33Zm-10.85.56c1.16.62 2.66.71 4.74.56 1.9-.21 3.23-.66 4.28-1.5a3.02 3.02 0 0 0 1.31-3.01c-.1-1.15-.78-2.05-1.94-2.66-1.15-.62-2.75-.74-4.74-.56-1.88.2-3.32.64-4.27 1.5-1.01.75-1.39 1.77-1.22 3.04a2.97 2.97 0 0 0 1.84 2.63ZM22.45 351.08c1.7.15 3.05.4 3.95.85.45.22.77.52 1 .78.22.37.33.7.42 1.13.04.62.03 1.03-.05 1.31l-1.48.22c-.02-.31-.01-.72-.02-1.44-.05-.21-.1-.43-.26-.57-.16-.15-.33-.3-.59-.47-1.5-.8-4.58-1.12-9.15-.82l-1.45.12-.06 2.12-.93.06-.68-10.77.93-.06.35 1.72 11.61-.76.08-1.8.93-.06.4 5.7-.92.06-.3-1.91-11.6.66.2 3.82 1.65-.06c2.34.01 4.28.02 5.97.17ZM14.28 340.13l-.22 1.57-.93.06-.2-9.53 2.94-.33.03 1.03-1.77.54-.03 4.68 5.23-.13-.1-3.08-1.57-.22-.03-1.03 4.3-.07.03 1.03-1.6.28-.03 3.15 5.54-.14-.32-5.28-2.4-.95.31-1.14 3.24.46.18 10.34-.93.05-.19-1.57-11.48.28ZM14.06 324.59l.07 3.18 3.88.73-.02 1.21-4.98-.41.26-11.65 5.02-.08-.02 1.22-3.93.58-.15 3.22 11.77.2.2-2.7.91.04-.16 7.09-.9-.04-.16-2.49-11.79-.1ZM21.49 310.18l-.04.9c.2.37.54.66 1.15 1.03.52.34 1.23.74 2.13 1.18.9.44 1.51.81 1.96 1.03.45.23.69.5.64.68l-.16 2.5-.91-.03-.1-.74c-.05-.22-.22-.37-.45-.63-.35-.2-.78-.52-1.46-1-.8-.42-1.4-.89-1.92-1.23a3.17 3.17 0 0 1-1.03-1.1 3.94 3.94 0 0 1-1.53 1.94c-.73.42-1.5.62-2.5.55-1.5-.1-2.5-.56-3.05-1.53-.55-.96-.72-2.23-.6-3.83 0-.4.1-.78.17-1.38.05-.6.18-1.07.16-1.38l.21-2.7.91.05.1 1.55 11.6.77.27-1.76.9.04-.35 5.5-.9-.04-.02-1.83-5-.33-.18 1.79Zm-6.77-1.71a5.96 5.96 0 0 0-.2 1.47c-.06 1 .05 1.75.52 2.28.46.53 1.1.8 2.2.9 1 .06 1.77-.14 2.4-.58.62-.45.83-1.2.99-2.18.06-1 .12-1.6.03-2.03l-5.7-.4-.24.54ZM15.66 297.72l-.24 3.2 3.8 1.01-.12 1.2-4.97-.83 1.27-11.58 5 .33-.11 1.19-3.92.17-.46 3.24 11.67 1.3.5-2.63.88.14-.79 7.12-.88-.13.04-2.44-11.67-1.29ZM29.79 283.78a6.05 6.05 0 0 1-2.83 1.8c-1.1.3-2.44.36-3.8.1a7.71 7.71 0 0 1-3.48-1.45 6.61 6.61 0 0 1-2.1-2.8 6.52 6.52 0 0 1-.27-3.54c.16-.97.46-2.12.98-3.3l.25-.54 3.28.67-.23 1.26-2.46.06a4.2 4.2 0 0 0-.95 2.4c-.1.78 0 1.52.32 2.22.32.7.89 1.25 1.76 1.8.78.5 1.83.79 3.09 1.02 1.16.21 2.19.18 3.24.06a5.35 5.35 0 0 0 2.53-1.06 3.43 3.43 0 0 0 1.2-2.22c.09-.7.12-1.2.1-1.5a2.32 2.32 0 0 0-.34-1.01l-1.65-1.06.3-1.14 2.52.88c-.08.29.03.62.1 1.15.08.43.05.93.14 1.36.09.43-.04.9-.12 1.6a8.44 8.44 0 0 1-1.58 3.24ZM19.55 266.47l.88.14-.17 1.78 9.16 1.95-1.93-1.94-5.35-6.63-.48-.13-.53 1.6-.88-.14 1.04-5.02.88.13-.1 1.5 11.37 2.44.5-1.5.86.23-1.06 5.12-.86-.23.15-1.7-9.35-1.99 1.86 1.82 5.42 6.75.67.18.55-1.69.88.14-1.06 5.11-.88-.13.12-1.6-11.37-2.43-.48 1.4-.88-.14 1.04-5.02ZM24.13 246.72l4.8 1.08-.33 1.24-3.76-.4-1.16 3.97 11.45 2.86 1.03-3.08.86.23-1.8 7.05-.85-.23.35-2.04-11.27-2.82-.7 1.85-.85-.23 2.23-9.48ZM26.11 243.89l-.66 1.35-.86-.23 1.52-4.9.85.24-.22 1.57 4.8 1.49 1.9-6.32-4.8-1.49-.67 1.35-.85-.23 1.49-4.8.85.24-.2 1.47 11.12 3.39.57-1.38.86.23-1.49 4.8-.86-.23.32-1.55-5.18-1.59-1.9 6.32 5.18 1.59.6-1.47.85.23-1.51 4.89-.86-.23.3-1.45-11.15-3.3ZM30.65 225.44l.72-1.94h13.65l.6-1.07.82.32-1.65 4.65-.83-.32.31-1.55-2.93-.07-1.78 5.12 2.28 1.74.7-1.45.83.33-1.43 4.2-.83-.33.2-1.16-10.66-8.47Zm3.27-.03-1.7-.15 1.47 1 5 3.78 1.6-4.46-6.37-.18ZM43.54 216.47c1.5.91 2.6 1.72 3.2 2.5a4 4 0 0 1 .6 1.17c.1.43 0 .81-.1 1.2-.26.54-.45.9-.62 1.15l-1.4-.48c.17-.25.3-.73.54-1.27.05-.2.13-.48.06-.6a2.61 2.61 0 0 0-.32-.7c-1.05-1.4-3.67-3.02-7.92-4.67l-1.37-.57-1.01 1.87-.83-.32 4-10.03.84.32-.46 1.71 10.76 4.31.84-1.6.83.32-2.14 5.33-.83-.32.5-1.9-10.76-4.31-1.44 3.48 1.57.63c2.15 1.08 3.97 1.88 5.46 2.78ZM46.55 200.68c.67-1.35 1.43-2.27 2.46-2.7 1.03-.44 2.03-.38 3.22.14 1.25.64 2.14 1.5 2.43 2.7.32 1.1.18 2.38-.49 3.73-.05.2-.2.36-.25.55-.14.16-.2.35-.36.61-.37.62-.62 1.16-.87 1.7l-1.01 2.28-.8-.42.5-1.5-10.6-4.97-.85 1.3-.8-.42 2.2-4.8.8.41-.57 1.78 3.88 1.86 1.11-2.25Zm0-12.94.81.42-.55 1.69 10.49 4.95.9-1.5.8.43-2.34 4.97-.8-.42.55-1.69-10.5-4.94-.9 1.48-.8-.41 2.35-4.98Zm6.18 17.65c.14-.17.24-.55.44-.9.45-.9.48-1.8.19-2.6-.3-.8-.96-1.38-1.95-1.85a3.3 3.3 0 0 0-2.48-.25c-.7.32-1.26.88-1.7 1.78l-.77 1.73 5.7 2.65c.25-.14.42-.4.57-.56ZM51.62 180.64l-.93 1.18-.8-.42 2.5-4.42.8.42-.59 1.47 4.45 2.41 3.17-5.77-4.44-2.4-.93 1.17-.8-.42 2.38-4.35.8.42-.47 1.4L66.95 177l.93-1.18.8.42-2.41 4.45-.8-.42.6-1.47-4.81-2.61-3.18 5.77 4.8 2.61.98-1.37.8.42-2.53 4.52-.8-.42.57-1.38-10.28-5.7ZM60.04 163.65l1.08-1.75 13.36 2.97.76-.92.78.52-2.65 4.18-.78-.52.7-1.44-2.86-.76-2.87 4.63 1.85 2.22 1.05-1.25.77.52-2.33 3.75-.78-.51.5-1.09-8.58-10.55Zm3.1.63-1.62-.44 1.2 1.24 4.11 4.77 2.5-4.01-6.2-1.56ZM69.6 151.14l-1.33 1.58-.78-.52 2.9-4 8.34 2.73 2.3.93-1.64-1.87-5.35-7.03 2.9-4.01.78.51-.98 1.78 10.34 5.51 1.14-1.22.78.52-3.23 4.43-.78-.51.82-1.52-7.33-4.2-3.2-1.77 1.76 2.2 6.14 8.26-.69 1.04-9.04-2.73-3.56-1.16 2.72 2.36 6.38 5.48 1.2-1.41.77.51-2.79 3.94-.77-.51.78-1.42-8.57-7.9Z"/>
      <path fill="#313131" d="m81.31 133.3 1.25-1.6 12.95 4.48.83-.8.75.61-3.07 3.86-.75-.6.85-1.3-2.68-1.03-3.39 4.3 1.61 2.36 1.12-1.13.75.6-2.75 3.45-.76-.61.6-1.07-7.3-11.53Zm3.02.9-1.57-.62 1.05 1.4 3.5 5.22 2.92-3.7-5.9-2.3ZM88.86 126.05l-1.16.9-.76-.6 1.63-1.9c.3-.34.59-.67.78-1.02.44-.5.79-1.01 1.22-1.5 1.17-1.33 2.3-2.14 3.26-2.3.96-.14 1.98.23 2.97 1.1a4.55 4.55 0 0 1 1.56 4.8 5.72 5.72 0 0 1-1.37 2.49c-.27.23-.47.59-.73.82-.27.24-.42.4-.44.5l3.15 2.67 1.8-1.75.66.58-4 4.63-.66-.58.86-1.3-8.77-7.54Zm7.47 1.39c.6-.76.93-1.59.85-2.42-.08-.84-.57-1.68-1.63-2.68-.82-.73-1.55-1.03-2.3-.92-.74.1-1.36.55-2.22 1.44-.29.33-.48.69-.78 1.01-.17.26-.29.33-.31.43l5.06 4.3c.33-.1.74-.5 1.33-1.16ZM106.7 124.1a6.1 6.1 0 0 1-3.35-.08 9 9 0 0 1-3.23-1.98 8 8 0 0 1-2.1-3.21 6.74 6.74 0 0 1-.18-3.52c.31-1.14.8-2.23 1.75-3.1.7-.72 1.5-1.42 2.73-2.21l.51-.38 2.3 2.45-.85.9-2.1-1.28a3.2 3.2 0 0 0-.92.37c-.36.2-.77.6-1.18 1-.56.56-.86 1.3-.94 1.99-.11.78.09 1.55.46 2.47a9.2 9.2 0 0 0 1.96 2.56c.8.82 1.77 1.39 2.66 1.83.9.45 1.78.58 2.62.5.84-.08 1.56-.5 2.24-1.13.44-.5.75-.92.93-1.18.17-.26.27-.64.25-.95l-.83-1.85.92-.77 1.66 2.17c-.15.17-.34.52-.59 1.07-.22.45-.42.8-.62 1.16-.2.35-.51.77-.95 1.27a9.49 9.49 0 0 1-3.16 1.9ZM117.76 94.58l.64.67-1.2 1.42 6.28 6.98-.38-2.76-.38-8.45-.3-.39-1.39.96-.63-.68 3.88-3.44.63.68-.93 1.17 7.76 8.7 1.25-.88.64.67-3.88 3.45-.63-.68 1.14-1.22-6.35-7.1.44 2.56.33 8.64.47.54 1.4-1.05.63.67-3.9 3.54-.63-.68 1.02-1.15-7.76-8.7-1.23.8-.63-.68 3.71-3.6ZM127.44 86.58c.32-.43.64-.85.93-1.18.3-.33.56-.56.82-.8a6.9 6.9 0 0 1 3.3-1.66c.96-.15 1.76.27 2.47 1.07.6.77.9 1.56.77 2.44a4.68 4.68 0 0 1-1.04 2.37c.89-.67 1.8-1.04 2.68-.9.9.03 1.62.43 2.23 1.2a3.96 3.96 0 0 1 .97 3.21c-.19 1.08-1 2.18-2.42 3.33-.53.47-1.14.82-1.62 1.1-.48.27-.94.45-1.27.57-.34.11-.55.16-.58.25l-1.81-2.73.77-.6 1.93 1.53a5.16 5.16 0 0 0 2.26-1.22c.66-.54 1.03-1.16.99-1.78a3.22 3.22 0 0 0-.94-2.19c-.45-.62-1.06-1-1.75-1.07-.7-.09-1.48.2-2.38.89l-1.04.84-.7-.8.8-.7c.38-.3.7-.73.92-1.18.23-.45.35-.93.3-1.45-.07-.53-.35-1.01-.72-1.52-.54-.65-1.06-1-1.68-.96a3.5 3.5 0 0 0-1.83.74c-.41.4-.7.72-1 1.05a.92.92 0 0 0-.22.86l.8 1.54-.91.77-1.97-2.16c.24-.13.53-.46.94-.86ZM140.63 77.28l-1.42.74-.51-.75 2.03-1.5c.36-.2.77-.6 1.28-.98.41-.4.8-.7 1.04-.84 1.4-1.05 2.55-1.55 3.46-1.51.9.03 1.71.45 2.32 1.23.51.75.71 1.51.7 2.32-.01.82-.4 1.52-1 2.18a4 4 0 0 1 2.82-.98c.9.04 1.68.56 2.2 1.3.74 1.02.96 2.1.75 3.26-.2 1.17-1.23 2.32-2.9 3.6-.39.31-.75.52-1.1.73-.85.49-1.27.88-1.48.93l-2.03 1.5-.51-.76 1.09-1.03-6.74-9.44Zm5.4 2.26.87-.58c.75-.52 1.12-1.13 1.18-1.73.05-.6-.15-1.36-.66-2.1-.51-.75-1.03-1.1-1.63-1.16-.6-.05-1.38.24-2.16.85-.39.3-.75.51-1.04.84l-.27.24 3.06 4.18c-.1-.03.27-.24.65-.54Zm4.79 4.95c1.01-.75 1.62-1.5 1.73-2.29a3.2 3.2 0 0 0-.6-2.3c-.61-.77-1.2-1.24-1.8-1.3-.69-.08-1.38.25-2.28.92-1.01.75-1.64 1.2-1.9 1.43l3.26 4.54c.21-.05.72-.42 1.59-1ZM153.2 66.9l1.73-1.17 10.94 8.22 1.05-.53.52.75-4.1 2.77-.52-.75 1.19-1-2.26-1.83-4.59 3.05.79 2.76 1.42-.74.51.75-3.72 2.46-.5-.75.82-.8-3.29-13.2Zm2.66 1.83-1.35-1.08.57 1.68 1.74 6.07 3.96-2.6-4.92-4.07ZM169.76 71.94a6.46 6.46 0 0 1-3.2-.96 9.95 9.95 0 0 1-2.6-2.83 8.71 8.71 0 0 1-1.18-3.58c-.1-1.15.23-2.38.8-3.35a7.23 7.23 0 0 1 2.52-2.58c.84-.5 1.88-.93 3.22-1.38l.58-.25 1.55 2.96-1.09.62-1.66-1.77c-.2-.05-.53.07-.96.15-.43.1-.91.37-1.4.65-.72.42-1.18 1-1.46 1.65-.3.73-.4 1.52-.25 2.47.15.96.59 2 1.24 2.98.65 1 1.32 1.89 2.08 2.5a6.5 6.5 0 0 0 2.41 1.25c.86.23 1.62.03 2.47-.46.6-.34.99-.65 1.16-.9.26-.24.46-.6.54-.88l-.28-2.01 1.06-.53.96 2.5c-.24.14-.5.37-.82.8-.3.32-.59.65-.97.96-.3.33-.78.6-1.26.88a5.85 5.85 0 0 1-3.46 1.11ZM179.51 54.18c.1-1.1.37-2.14.91-3.01a5.85 5.85 0 0 1 2.19-2.06 5.55 5.55 0 0 1 3.16-.79c1 .07 2.02.44 2.84 1.17.83.73 1.6 1.65 2.32 2.76a8.77 8.77 0 0 1 1.2 3.89 5.62 5.62 0 0 1-.68 3.28 5.95 5.95 0 0 1-5.49 3.01c-1-.06-2.02-.44-2.87-1.07a8.1 8.1 0 0 1-2.31-2.76l-2.63 1.43 2.6 4.77 1.48-.62.4.82-4.53 2.45-.4-.81 1.26-.89-5.5-10.24-1.47.53-.49-.84 4.4-2.39.5.84-1.26.89 2.39 4.4 2.72-1.4a6.96 6.96 0 0 1-.74-3.36Zm1.77-1.25c-.14 1.28.26 2.82 1.3 4.62.9 1.57 1.82 2.73 2.98 3.35 1.16.61 2.16.68 3.34.08a2.94 2.94 0 0 0 1.64-2.72 9.65 9.65 0 0 0-1.33-4.53c-.9-1.57-1.81-2.73-2.88-3.32a3.3 3.3 0 0 0-3.22-.15 3.17 3.17 0 0 0-1.83 2.67ZM200.24 49.45c.7.4 1.58.93 2.74 1.55.78.51 1.3.86 1.75 1.08.45.22.64.27.85.23l.74-.1.4.8-2.1.98c-.24.14-.62.03-1.16-.21-.55-.25-1.23-.74-2.17-1.4a25 25 0 0 0-2.5-1.69c-.62-.37-1.12-.4-1.46-.29l-1.06.53 2.29 4.8 1.56-.5.39.81-4.67 2.21-.4-.81 1.34-.77-4.94-10.49-1.44.43-.39-.82 4.55-2.14.4.82-1.36.86 2.26 4.88 1.42-.74 1.13-6.52-1.56.5-.39-.82 4.19-1.93.39.82-1.23.79-1.38 6.66c.4 0 1.07.18 1.8.48ZM209.44 51.2a4.91 4.91 0 0 1-2.74-1.55 9.76 9.76 0 0 1-2.1-3.2 7.99 7.99 0 0 1-.72-3.76 6.4 6.4 0 0 1 1.06-3.18 5.9 5.9 0 0 1 2.59-2.06c1.82-.73 3.35-.73 4.8-.04 1.44.7 2.58 2.12 3.39 4.07a8.3 8.3 0 0 1 .7 3.85 6.77 6.77 0 0 1-1.09 3.28 5.9 5.9 0 0 1-2.58 2.05c-1.18.6-2.24.73-3.3.54Zm-3.6-10.13c-.23 1.26.08 2.77.78 4.7.76 1.72 1.65 2.98 2.69 3.67 1 .78 2.1.87 3.26.36 1.13-.41 1.79-1.35 2.03-2.61.23-1.27-.05-2.87-.88-4.72-.76-1.73-1.65-2.99-2.68-3.67-1.04-.69-2.11-.87-3.27-.37a3.46 3.46 0 0 0-1.93 2.64ZM216.8 35.15l-1.5.3-.28-.88 2.38-.9c.43-.08.91-.36 1.49-.61.58-.26.94-.46 1.25-.48 1.58-.6 2.85-.77 3.7-.54.86.23 1.52.82 1.86 1.82.3.8.38 1.63.08 2.37-.3.73-.79 1.42-1.51 1.83a4.72 4.72 0 0 1 2.92-.23c.85.23 1.48.9 1.82 1.91a3.92 3.92 0 0 1-.17 3.32c-.59 1.06-1.85 1.95-3.77 2.65-.45.19-.79.3-1.22.39-.89.27-1.47.52-1.68.57l-2.38.89-.3-.8 1.42-.73-4.1-10.88Zm4.62 3.68 1-.34c.8-.3 1.33-.77 1.6-1.4.28-.65.27-1.36-.13-2.18-.3-.8-.76-1.33-1.3-1.58-.55-.24-1.39-.16-2.4.18-.45.18-.81.4-1.27.57l-.36.21 1.85 4.88c.12-.07.46-.18 1-.34Zm3.17 6.04a4.13 4.13 0 0 0 2.3-1.73c.39-.7.37-1.42.03-2.43-.36-.91-.83-1.45-1.38-1.7-.64-.27-1.47-.19-2.5.25-1.23.39-1.93.7-2.26.82l1.96 5.21c.26.18.93-.05 1.85-.42ZM244.33 24.8l.27.89-1.42.74 3.34 11.08 1.73-.35.27.88-5 1.52-.26-.89 1.4-.64-3.42-11.2-5.76 1.71 3.42 11.2 1.72-.35.27.89-4.99 1.51-.27-.89 1.4-.64-3.35-11.08-1.6.28-.28-.89 12.53-3.77ZM252.13 36.36a5.54 5.54 0 0 1-2.55-1.9 9.17 9.17 0 0 1-1.52-3.47 9.2 9.2 0 0 1-.17-3.91 6.06 6.06 0 0 1 1.5-2.96 5.47 5.47 0 0 1 2.9-1.67c1.87-.52 3.44-.3 4.8.68 1.28.95 2.21 2.42 2.75 4.6a9.7 9.7 0 0 1 .17 3.92 5.47 5.47 0 0 1-1.63 3.03 6.78 6.78 0 0 1-2.89 1.67 5.26 5.26 0 0 1-3.36.01Zm-2.14-10.65c-.43 1.2-.33 2.76.16 4.72a7.88 7.88 0 0 0 2.08 4.02 3.2 3.2 0 0 0 3.14.84c1.2-.29 1.9-1.01 2.35-2.32.43-1.2.36-2.86-.13-4.82a7.88 7.88 0 0 0-2.08-4.02 3.2 3.2 0 0 0-3.14-.84 4.16 4.16 0 0 0-2.38 2.42ZM266.05 28.48a9.6 9.6 0 0 1-.38 4.08 2.32 2.32 0 0 1-1.77 1.66c-.55.16-1.05.13-1.26.17l-.43-1.44c.3-.02.74-.1 1.39-.24.21-.04.43-.09.57-.25.15-.17.3-.33.37-.62.65-1.65.44-4.67-.49-9.2l-.33-1.4-2.2.22-.18-.86 10.56-2.16.18.86-1.68.57 2.34 11.42 1.88-.2.18.86-5.6 1.14-.18-.86 1.9-.61-2.34-11.43-3.66.75.37 1.63c.32 2.23.6 4.24.76 5.91ZM275.67 18.83h-1.53l-.15-.95 9.38-1.56.76 2.85-1.05.12-.85-1.75-4.55.61.84 5.22 3.12-.6v-1.52l1.05-.13.7 4.26-1.06.13-.5-1.56-3.08.5.86 5.52 5.17-1.05.57-2.5 1.16.21.04 3.27-10.22 1.64-.17-.86 1.53-.4-2.02-11.45ZM291.08 16.44l-3.19.48-.13 3.93-1.27.17-.3-4.97 11.57-1.38.83 4.9-1.15.1-1.1-3.85-3.23.25 1.45 11.7 2.68-.1.05.93-7.05.86-.06-.93 2.37-.49-1.47-11.6ZM306.36 21.76l-.94.06c-.26.23-.58.66-.83 1.2-.27.64-.57 1.37-.82 2.32-.35.93-.53 1.6-.75 2.04-.23.45-.4.71-.61.76l-2.51.24-.06-.93.67-.23c.22-.04.36-.2.56-.56.2-.35.44-.9.74-1.63.33-.83.72-1.54.97-2.09.34-.52.66-.94 1.02-1.15a3.3 3.3 0 0 1-2.13-1.18 4.01 4.01 0 0 1-.89-2.38c-.12-1.46.29-2.57 1.06-3.18a6.52 6.52 0 0 1 3.77-1.13c.3-.02.83-.08 1.43-.02.62-.04 1.02-.03 1.33-.05l2.7-.2.06.94-1.5.3.9 11.45 1.71.05.06.94-5.52.45-.06-.93 1.82-.33-.4-5-1.78.24Zm.76-7.03c-.6-.05-1.03.03-1.53 0a3.5 3.5 0 0 0-2.14.75c-.53.47-.73 1.23-.6 2.28a3.5 3.5 0 0 0 .9 2.29c.6.46 1.36.66 2.29.6 1.03-.02 1.67-.15 1.98-.17l-.4-5.71-.5-.04ZM317.84 14.25l-3.22.25-.55 3.93-1.24.07.13-5.05L324.6 13l.4 5h-1.13l-.79-3.88-3.27.04.4 11.82 2.62.1.06.92-7.1.24-.05-.93 2.41-.27-.3-11.8ZM333.68 26.23a6.56 6.56 0 0 1-2.18-2.52 8.66 8.66 0 0 1 .27-7.46 5.7 5.7 0 0 1 2.47-2.4 6.96 6.96 0 0 1 3.48-.8c.9.04 2.1.16 3.43.51l.57.16-.3 3.38-1.22-.02-.39-2.35a2.12 2.12 0 0 0-.9-.44c-.47-.13-.97-.16-1.57-.22a3.41 3.41 0 0 0-2.1.66 5.28 5.28 0 0 0-1.54 1.93 10.25 10.25 0 0 0-.27 6.34c.26.9.75 1.74 1.4 2.32.67.58 1.4.88 2.3.92.73-.01 1.13 0 1.56-.1.34-.1.67-.22.94-.45l.8-1.83 1.16.21-.5 2.62c-.3.02-.64.13-1.17.2-.43.08-.89.27-1.3.26-.42.09-.93.05-1.55.1a6.15 6.15 0 0 1-3.4-1.02ZM349.28 13.6l-.03.91-1.87.11-.68 9.4 1.7-2.2 5.84-6.17.03-.5-1.64-.34.04-.9 5.1.34-.04.9-1.46.12-.77 11.61 1.55.32-.04.9-5.2-.37.04-.9 1.65-.08.62-9.5-1.57 2.02-5.95 6.25-.08.69 1.76.27-.04.9-5.3-.4.05-.9 1.55-.1.77-11.6-1.45-.3.04-.9 5.38.43ZM369.56 15.47l-.4 4.89-1.28-.14-.1-3.8-4.12-.6-1.32 11.78 3.21.55-.13.88-7.31-.84.13-.88 2.03.04 1.24-11.49-1.9-.5.14-.89 9.81 1ZM372.71 17.03l-1.4-.48.13-.88 5 .73-.13.88-1.62-.03-.73 5 6.45 1.02.73-5-1.5-.5.14-.88 5 .73-.14.88h-1.53l-1.74 11.44 1.43.39-.14.88-5-.73.14-.88h1.52l.83-5.38-6.45-1.02-.83 5.38 1.62.44-.13.88-5.1-.76.13-.88h1.53l1.79-11.23ZM391.53 19.02l2.02.44L395.42 33l1.12.4-.14.88-4.82-.99.13-.88 1.6.12-.33-2.94-5.3-1.12-1.41 2.58 1.5.5-.14.89-4.35-.86.13-.89 1.22.02 6.9-11.7Zm.6 3.11-.17-1.67-.72 1.54-3 5.5 4.63.94-.75-6.31ZM402.22 30.44a11.18 11.18 0 0 1-2.06 3.52c-.42.4-.78.6-1.11.72-.34.11-.75.1-1.22-.02-.57-.15-1.04-.28-1.3-.45l.19-1.48 1.33.36c.19.05.4 0 .62-.04.21-.04.36-.2.63-.44 1.23-1.2 2.5-4.02 3.6-8.5l.38-1.43-2-.54.26-.95 10.5 2.61-.25.95-1.79-.17-2.81 11.26 1.75.68-.23.85-5.63-1.4.23-.86 1.95.32 2.82-11.27-3.73-.9-.44 1.62c-.44 2.02-1.07 4-1.69 5.56ZM418.3 31.28a5.75 5.75 0 0 1 3.01 2.03c.58.87.68 2.02.26 3.23-.48 1.4-1.23 2.32-2.27 2.75-1.15.5-2.37.49-3.8.1l-.56-.15c-.2-.05-.38-.1-.64-.27-.64-.27-1.3-.45-1.85-.7l-2.45-.76.23-.85 1.55.31 3.38-11.11-1.35-.67.23-.85 5.08 1.56-.23.86-1.85-.3-1.31 4.13 2.56.7ZM414.45 38c.19.06.54.25.92.35 1.05.28 1.86.3 2.58-.12s1.21-1.1 1.5-2.15c.27-1.04.26-1.76-.16-2.48-.35-.6-1.03-1.1-2.05-1.47l-1.8-.48-1.82 6.03c.38.1.64.27.83.32Zm16.63-8.47-.23.85-1.76-.27-3.39 11.11 1.64.75-.23.85-5.27-1.61.23-.86 1.73.37 3.39-11.12-1.64-.74.23-.86 5.3 1.53ZM438.78 33.51l-1.32-.76.32-.83 4.72 1.77-.33.83-1.54-.31-1.77 4.72 6.18 2.37 1.78-4.72-1.33-.76.33-.83 4.72 1.77-.33.83-1.45-.28-4.14 10.9 1.35.67-.33.83-4.72-1.77.33-.83 1.52.4 1.97-5.07-6.2-2.37-1.96 5.07 1.42.8-.33.82-4.79-1.9.33-.82 1.52.4 4.05-10.93ZM456.77 39.35l1.92.82-1.02 13.68.95.66-.33.83-4.55-2.03.33-.83 1.5.5.38-2.95-5.03-2.16-1.9 2.14 1.42.78-.32.83-4.1-1.8.33-.84 1.14.3 9.28-9.93Zm-.05 3.25.24-1.67-1.07 1.34-4.12 4.7 4.39 1.9.56-6.27ZM470.48 47.1l-1.72-1.18.42-.8 4.38 2.3-1.51 8.65-.54 2.4 1.6-1.8 6.17-6.3 4.38 2.3-.42.8-1.95-.72-4.05 10.93 1.37.98-.42.8-4.73-2.49.42-.8 1.56.62 3.12-7.82 1.32-3.42-1.96 2.02-7.24 7.23-1.06-.59 1.5-9.38.65-3.59-1.94 3.05-4.56 7.13 1.56 1.03-.42.8-4.28-2.27.42-.8 1.47.6 6.46-9.68Z"/>
      <path fill="#313131" d="m489.85 56.16 1.75 1.08L489 70.7l.94.66-.41.8-4.24-2.45.42-.8 1.47.6.65-2.79-4.66-2.77-2.16 1.97 1.28.95-.42.8-3.78-2.23.42-.8 1.11.4 10.22-8.88Zm-.43 3.14.43-1.61-1.24 1.2-4.7 4.23 4.14 2.44 1.37-6.26ZM498.12 62.55l-1.06-1 .52-.77 2.07 1.37c.36.2.78.51 1.14.7.61.38 1.16.62 1.68.97 1.46 1 2.42 1.97 2.67 2.95.24.99.06 2.06-.63 3.1a4.57 4.57 0 0 1-2 1.8c-.83.4-1.66.47-2.54.34a7.26 7.26 0 0 1-2.68-1.02 4.8 4.8 0 0 1-.95-.66c-.35-.2-.52-.35-.58-.47l-2.26 3.47 2.03 1.56-.52.78-5.12-3.3.51-.78 1.45.69 6.27-9.73Zm-.32 7.66c.88.54 1.63.74 2.5.56.86-.17 1.63-.78 2.37-2 .54-.88.77-1.74.54-2.41a4.2 4.2 0 0 0-1.7-1.99c-.36-.2-.72-.39-1.17-.61a1.73 1.73 0 0 0-.45-.22l-3.62 5.54c.33.3.75.61 1.53 1.13ZM502.53 79.93a5.85 5.85 0 0 1-.35-3.25 9.39 9.39 0 0 1 1.56-3.56 8 8 0 0 1 2.81-2.5 6.23 6.23 0 0 1 3.43-.61c1.19.11 2.3.51 3.31 1.3.78.5 1.68 1.36 2.54 2.3l.5.44-2.12 2.59-1.04-.69 1-2.17c-.05-.22-.29-.49-.5-.85-.2-.36-.72-.7-1.24-1.05a3.57 3.57 0 0 0-2.16-.68c-.81-.01-1.6.29-2.36.8a9.2 9.2 0 0 0-2.23 2.25 13 13 0 0 0-1.48 2.87 4.82 4.82 0 0 0-.12 2.71c.27.9.72 1.52 1.5 2.03.52.35.94.66 1.32.77.38.1.67.17.98.16l1.7-1.07.9.85-1.94 1.92c-.26-.17-.64-.27-1.09-.5-.48-.12-.83-.32-1.3-.45-.36-.2-.81-.41-1.33-.76a8.52 8.52 0 0 1-2.29-2.85ZM529.79 83.87l-.61.75-1.56-1.02-5.92 7.27 2.66-.81 8.29-1.65.32-.43-1.1-1.21.6-.75 4 3.3-.6.76-1.33-.76-7.4 9.02 1.12 1.11-.58.66-4-3.31.58-.66 1.4.88 6.04-7.34-2.45.77-8.5 1.7-.44.49 1.2 1.23-.59.66-4.1-3.34.6-.65 1.29.85 7.4-9.01-1.03-1.1.61-.75 4.1 3.34ZM539.27 92.22c.54.24.87.54 1.23.73.35.2.68.5.94.66 1.15 1.02 1.9 2.04 2.14 3.02.25.98.02 1.84-.68 2.57-.7.73-1.43 1.14-2.34 1.1a3.8 3.8 0 0 1-2.47-.66c.8.83 1.29 1.67 1.37 2.5.08.84-.25 1.67-.83 2.33-.87.99-1.93 1.52-3.03 1.43-1.12 0-2.28-.61-3.7-1.8-.58-.47-.95-.97-1.33-1.48-.37-.5-.58-.87-.81-1.14l-.35-.6 2.42-2.2.66.58-1.18 2.13c.23.67.76 1.33 1.5 2.03.65.58 1.2.83 1.94.72a3.28 3.28 0 0 0 1.95-1.2c.56-.57.74-1.23.82-1.92.08-.7-.43-1.44-1.25-2.17l-.99-.88.7-.73.83.73c.42.32.85.64 1.32.77.48.12.98.16 1.53 0a2.8 2.8 0 0 0 1.38-.96c.58-.66.83-1.2.7-1.85-.04-.62-.42-1.13-1.08-1.71-.4-.41-.75-.6-1.2-.83-.35-.2-.66-.18-.88-.14l-1.4 1.05-.92-.75 1.83-2.26c.3.39.66.58 1.18.93ZM550.4 103.86l-.88-1.26.68-.63 1.76 1.8c.33.29.73.7 1.22 1.14l.99.87c1.2 1.24 1.94 2.26 2 3.19.18.86-.15 1.69-.85 2.42-.68.63-1.38.95-2.12 1.06-.74.1-1.6-.12-2.38-.64.9.85 1.38 1.7 1.44 2.63.05.93-.25 1.67-.95 2.4-.85.89-1.98 1.3-3.07 1.2-1.2-.1-2.52-.87-3.98-2.28-.33-.3-.63-.68-.86-.95-.63-.67-1.03-1.09-1.2-1.23l-1.76-1.8.68-.63 1.27.95 8.02-8.24ZM544.88 115c.9.85 1.67 1.36 2.49 1.38.8 0 1.5-.31 2.18-.95.68-.63.98-1.36.95-1.99-.04-.62-.46-1.34-1.26-2.17-.89-.84-1.45-1.4-1.69-1.67l-3.9 3.94c.04.22.53.66 1.23 1.46Zm4.23-5.5.72.71c.66.59 1.28.95 1.9.92a2.83 2.83 0 0 0 1.9-1.02c.58-.66.93-1.18.89-1.8-.04-.62-.46-1.34-1.18-2.05-.33-.3-.66-.58-1.09-.9l-.33-.3-3.64 3.72c.2.05.43.31.83.73ZM562.7 114.6l1.44 1.5-6.38 12.03.65 1-.68.63-3.3-3.64.67-.63 1.15 1.02 1.5-2.55-3.7-4.05-2.67 1.22.98 1.28-.68.63-3-3.24.68-.64.92.76 12.43-5.33Zm-1.47 2.85.9-1.48-1.53.8-5.7 2.65 3.23 3.52 3.1-5.49ZM560.15 131.73a5.56 5.56 0 0 1 .49-3.33 8.04 8.04 0 0 1 2.44-3.02 7.8 7.8 0 0 1 3.41-1.73 6.42 6.42 0 0 1 6.4 2.33c.62.77 1.27 1.76 1.87 2.94l.25.58-2.68 2.03-.77-.92 1.53-1.93c-.04-.22-.06-.53-.27-.89-.2-.36-.49-.84-.89-1.26a3.55 3.55 0 0 0-1.9-1.22 4.5 4.5 0 0 0-2.5.15c-.88.27-1.84.83-2.76 1.6a11.3 11.3 0 0 0-2.17 2.37 4.93 4.93 0 0 0-.78 2.54c-.01.81.28 1.6.89 2.38.47.53.8.83 1.15 1.02.36.2.62.37.93.35l1.9-.61.64.99-2.31 1.42c-.16-.15-.5-.44-.92-.76a4.92 4.92 0 0 1-1.1-.8c-.34-.3-.76-.61-1.13-1.12a5.16 5.16 0 0 1-1.72-3.1ZM579.18 138.66a6.7 6.7 0 0 1 3.04.41 5.75 5.75 0 0 1 2.36 1.85 6 6 0 0 1 1.24 2.98c.03 1.03-.13 2-.7 2.98a8.53 8.53 0 0 1-2.45 2.7 9.6 9.6 0 0 1-3.63 1.78 5.73 5.73 0 0 1-5.96-2.1 6.52 6.52 0 0 1-1.3-3.11c-.13-1.05.12-2 .6-3a9.86 9.86 0 0 1 2.35-2.73l-1.8-2.41-4.35 3.31.84 1.45-.75.51-3.08-4.08.75-.52 1.12 1.12 9.21-7-.76-1.33.77-.6 3.01 3.96-.77.6-1.13-1.11-3.96 3.01 1.8 2.42c1.37-.55 2.47-.87 3.55-1.09Zm1.62 1.56c-1.25.07-2.73.69-4.4 1.97-1.43 1.15-2.43 2.2-2.85 3.42a3.29 3.29 0 0 0 .44 3.27 3.03 3.03 0 0 0 2.94 1.2c1.24-.08 2.67-.82 4.3-2 1.43-1.15 2.43-2.2 2.86-3.42.42-1.2.3-2.26-.38-3.15a3.25 3.25 0 0 0-2.91-1.3ZM587.13 158.41c-.2.76-.68 1.76-1.2 2.94-.42.8-.6 1.47-.8 1.83-.1.38-.2.76-.13.88l.23.67-.75.51-1.33-1.88c-.14-.24-.13-.65.12-1.2.25-.54.57-1.37 1.04-2.36.62-1.16.97-2.09 1.24-2.73.27-.64.21-1.16.1-1.5l-.66-.99-4.37 3 .72 1.52-.75.52-2.84-4.23.75-.51 1 1.19 9.59-6.5-.65-1.4.75-.51 2.77 4.1-.75.52-1-1.19-4.47 2.98.86 1.35 6.59.14-.74-1.43.75-.5 2.53 3.83-.75.51-1.03-1.09-6.75-.28c.19.46.13 1.05-.07 1.81ZM586.75 167.79c.07-1 .35-2.05 1.1-2.97a8.7 8.7 0 0 1 2.81-2.5 7.9 7.9 0 0 1 3.6-1.28 6.59 6.59 0 0 1 3.31.58c1 .47 1.82 1.2 2.45 2.28.97 1.7 1.28 3.2.75 4.79-.5 1.5-1.67 2.81-3.5 3.95a8.86 8.86 0 0 1-3.72 1.35 6.89 6.89 0 0 1-3.4-.61 6.2 6.2 0 0 1-2.45-2.28 6.76 6.76 0 0 1-.95-3.31Zm9.54-5.19c-1.22-.02-2.77.48-4.49 1.55-1.59 1-2.68 2.03-3.2 3.21-.62 1.16-.5 2.21.13 3.3a3.34 3.34 0 0 0 2.84 1.57c1.31.05 2.78-.47 4.49-1.54 1.6-1 2.68-2.03 3.2-3.22.5-1.09.5-2.21-.13-3.3a3.28 3.28 0 0 0-2.84-1.57ZM603.78 172.65l-.52-1.46.84-.49 1.25 2.17c.21.36.5.84.87 1.35.37.51.58.87.72 1.11.8 1.54 1.22 2.67 1.06 3.65-.16.97-.63 1.56-1.5 2.14a3.8 3.8 0 0 1-2.37.49c-.78-.1-1.5-.5-2.1-1.28.63 1.09.8 1.95.64 2.93-.13.88-.71 1.53-1.56 2.02a3.87 3.87 0 0 1-3.34.33c-1.12-.4-2.15-1.5-3.2-3.3-.2-.36-.39-.82-.6-1.18-.48-.84-.74-1.42-.8-1.54l-1.26-2.17.82-.4.89 1.26 10.16-5.63Zm-8.46 9.15c.63 1.08 1.26 1.76 2.02 1.96.76.2 1.5.1 2.35-.39.84-.48 1.3-1.07 1.46-1.64.15-.57-.02-1.44-.58-2.4l-1.19-2.05-4.88 2.66c.08.44.34 1.01.82 1.86Zm5.59-4.11.46.94c.41.72 1 1.18 1.57 1.34.67.18 1.32.04 2.16-.44.72-.42 1.16-.91 1.31-1.49.16-.57-.05-1.33-.6-2.3-.21-.36-.51-.75-.7-1.2l-.2-.36-4.56 2.54.56.97ZM618.34 198.15l-.82.4-.86-1.36-10.41 5.05.56 1.68-.81.4-2.29-4.8.82-.39.86 1.36 10.51-5.03-2.63-5.4-10.53 5.13.56 1.68-.81.4-2.31-4.7.82-.4.79 1.24 10.42-5.05-.5-1.56.81-.4 5.82 11.75ZM608.04 207.71a5.57 5.57 0 0 1 1.45-2.77c.83-.8 1.84-1.54 3.12-2.11a7.48 7.48 0 0 1 3.76-.73c1.19.12 2.23.4 3.18 1.06a5.9 5.9 0 0 1 2.05 2.59c.74 1.82.83 3.37.04 4.8-.7 1.44-2.12 2.58-4.06 3.38a8.3 8.3 0 0 1-3.86.7 6.78 6.78 0 0 1-3.27-1.08 6.8 6.8 0 0 1-2.16-2.61 6.36 6.36 0 0 1-.25-3.23Zm10.16-3.7c-1.27-.23-2.78.08-4.72.88-1.73.76-2.99 1.65-3.67 2.69-.69 1.03-.88 2.1-.37 3.26a3.3 3.3 0 0 0 2.62 2.02c1.26.24 2.86-.04 4.71-.87 1.73-.76 2.99-1.65 3.68-2.68.68-1.04.77-2.14.36-3.27a3.3 3.3 0 0 0-2.61-2.02ZM617.95 220.15c-1.73.35-3.09.5-4.07.33-.47-.12-.95-.25-1.18-.52a2.5 2.5 0 0 1-.75-1.01c-.25-.58-.34-1.01-.36-1.32l1.4-.65c.02.31.2.77.45 1.35.05.21.21.36.38.5.16.15.35.2.64.28 1.73.36 4.75-.26 8.95-1.88l1.37-.55-.56-2.08.91-.37 3.82 10.09-.91.36-.81-1.54-10.88 4.12.45 1.75-.9.27-2-5.43.89-.27.85 1.75 10.88-4.1-1.3-3.51-1.59.59c-2.09.97-3.96 1.48-5.68 1.84ZM629.03 228.2l-.31-1.5.89-.27 2.97 9.04-2.64 1.13-.34-1 1.52-1.13-1.36-4.44-5.01 1.61 1.04 2.93 1.58-.19.35 1.01-4.13 1.34-.34-1 1.42-.75-.93-3-5.26 1.76 1.83 4.97 2.6.18v1.12l-3.28.45-3.27-9.84.9-.27.64 1.4 11.13-3.54ZM633.82 243.04l-1.03-3.03-4 .46-.28-1.2 4.86-1.04 3.2 11.25-4.8 1.57-.31-1.1 3.6-1.69-.78-3.16-11.34 3.17.53 2.59-.89.27-1.94-6.83.9-.28.81 2.26 11.47-3.24ZM630.87 258.95l-.17-.86c-.24-.26-.71-.4-1.38-.57-.66-.18-1.45-.29-2.42-.45-.98-.16-1.64-.33-2.12-.46-.48-.13-.74-.3-.78-.52l-.55-2.49.86-.17.32.7c.07.11.33.29.69.48.38.1.94.26 1.68.56l2.28.6c.55.25 1 .48 1.33.77.03-.9.33-1.64.8-2.23a3.87 3.87 0 0 1 2.17-1.25c1.4-.34 2.57-.13 3.3.58a7.1 7.1 0 0 1 1.7 3.51c.12.34.19.86.25 1.39.04.62.12 1.05.24 1.39l.62 2.6-.89.28-.62-1.49-11.3 2.67.25 1.7-.83.08-1.32-5.34.86-.18.57 1.68 4.8-1.16-.34-1.82Zm7-.26c-.06-.53-.12-1.05-.21-1.48a3.73 3.73 0 0 0-1.09-2.03c-.5-.43-1.3-.45-2.29-.2-.98.24-1.7.66-2.07 1.28-.37.61-.48 1.4-.23 2.38.24.98.38 1.63.51 1.87l5.56-1.36-.18-.46ZM640.06 269.16l-.69-3.14-4.01.15-.2-1.18 4.95-.6 2.25 11.4-4.9 1.13-.19-1.18 3.73-1.34-.48-3.18-11.58 2.19.31 2.63-.86.17-1.39-6.99.87-.17.7 2.32 11.49-2.21ZM630.7 286.61c.47-1 1.22-1.91 2.18-2.47a9.4 9.4 0 0 1 3.6-1.27 7.3 7.3 0 0 1 3.77.4 6.65 6.65 0 0 1 2.8 2.07 6.33 6.33 0 0 1 1.36 3.32c.15.95.15 2.07-.01 3.46l-.06.6-3.32.22-.17-1.27 2.26-.82c.14-.16.24-.54.25-.95 0-.4.06-1-.1-1.55a3.47 3.47 0 0 0-.99-2 4.78 4.78 0 0 0-2.22-1.2c-.95-.26-1.98-.23-3.22-.15-1.17.2-2.15.44-3.1.9-.93.46-1.58 1-2.07 1.68a3.54 3.54 0 0 0-.54 2.4c.13.65.2 1.18.4 1.54.11.33.35.6.58.87l1.9.5-.02 1.22-2.72-.12c-.04-.21-.13-.64-.4-1.12-.2-.46-.4-.82-.49-1.25-.09-.43-.27-.89-.3-1.51.01-1.22.13-2.4.63-3.5ZM645.6 300.18l-.93.06-.43-1.85-9.39.85 2.39 1.35 7.08 4.75.52-.07.06-1.71.93-.06.46 5.12-.93.05-.34-1.41-11.59 1.07-.02 1.62-.94.06-.43-5.21.93-.06.38 1.63 9.49-.82-2.32-1.23-7.15-4.87-.62.04-.06 1.71-.93.06-.44-5.21.94-.06.3 1.51 11.6-1.07.1-1.5.93-.06.4 5.3ZM646.88 320.49l-4.88.32-.07-1.24 3.76-.73-.03-4.08-11.75.52-.05 3.25-.93.05-.38-7.33.93-.06.28 2.01 11.56-.57.13-2 .93-.06.5 9.92ZM645.8 323.76l.19-1.47.9.03-.03 5.09-.9-.04-.2-1.58-4.98-.01-.04 6.6 4.98.02.2-1.48.9.04-.01 4.99-.9-.04-.22-1.48-11.62.04-.2 1.48-.9-.04.01-4.99.9.04.2 1.58 5.39.02.04-6.61-5.4-.02-.21 1.57-.9-.04-.07-5.1.91.03.21 1.48 11.75-.1ZM646.84 342.68l-.03 2.03-13.08 3.93-.2 1.17-.91-.04.2-4.94.9.04.1 1.55 2.85-.76.24-5.44-2.68-1.02-.22 1.57-.9-.04.16-4.44.9.04.1 1.15 12.57 5.2Zm-3.05 1.12 1.63-.38-1.69-.55-5.93-2.2-.24 4.72 6.23-1.6ZM637.2 355.07c-1.7-.46-2.92-.88-3.77-1.52-.42-.31-.75-.6-.86-.94-.21-.36-.2-.77-.2-1.18.06-.6.07-1 .24-1.26h1.53c-.08.3-.11.8-.17 1.39-.05.19 0 .4.13.64.05.22.21.37.47.54 1.34 1.07 4.41 1.79 8.89 2.17l1.5.1.37-2.14.9.04-.94 10.75-.9-.04-.04-1.75-11.54-1.05-.39 1.83-.9-.04.52-5.76.91.04v1.93l11.52 1.05.3-3.79-1.68-.15c-2.3-.2-4.25-.52-5.89-.86ZM638.85 371c-.2 1.47-.72 2.65-1.61 3.33-.8.7-1.88.93-3.16.78a4.15 4.15 0 0 1-3.08-1.84 5.38 5.38 0 0 1-.63-3.73c.05-.2.1-.38.06-.6-.04-.21.1-.38.18-.66.18-.67.26-1.36.41-1.93l.38-2.55.88.14-.02 1.62 11.57 1.68.5-1.5.88.13-.8 5.29-.89-.14-.1-1.86-4.32-.64-.25 2.47Zm-7.24-2.66c-.05.2-.15.57-.16.98-.18 1.07.02 1.84.56 2.49a3.14 3.14 0 0 0 2.34 1.14c.98.16 1.84-.02 2.37-.49.63-.44.93-1.18 1.11-2.25l.3-1.85-6.29-.87-.23.85Zm10.94 15.05-.88-.13.05-1.72-11.47-1.65-.46 1.72-.88-.14.73-5.4.88.13-.05 1.72 11.48 1.65.46-1.71.88.13-.74 5.4ZM639.74 391.6l.57-1.37.86.23-1.14 5-.85-.24.12-1.6-4.9-1.1-1.42 6.44 4.9 1.11.57-1.38.86.23-1.11 4.9-.86-.23.1-1.5-11.37-2.43-.47 1.4-.86-.23 1.1-4.9.87.23-.1 1.5 5.3 1.12 1.42-6.45-5.3-1.11-.53 1.59-.85-.23 1.13-5 .86.23-.1 1.5 11.2 2.3ZM636.7 410.14l-.53 2-13.57 1.25-.5 1.1-.86-.24 1.18-4.77.86.22-.22 1.58 2.9-.15 1.3-5.25-2.46-1.47-.6 1.47-.85-.23 1.05-4.3.85.22-.11 1.2 11.57 7.38Zm-3.15.38 1.74-.04-1.51-.81-5.34-3.27-1.13 4.59 6.24-.47ZM631.18 425.06l.92-1.89.83.32-1.56 4.68-8.8-.22-2.41-.14 2.1 1.28 7.17 5.18-1.56 4.68-.83-.33.44-2.02-11.51-2.27-.7 1.44-.82-.32 1.68-5.15.83.32-.34 1.64 8.25 1.9 3.57.76-2.31-1.64-8.25-6.08.4-1.11 9.47-.01 3.75.09-3.37-1.52-7.74-3.4-.77 1.73-.83-.32 1.53-4.58.83.32-.31 1.55 10.34 5.11Z"/>
      <path fill="#313131" d="m625.25 445.68-.72 1.94-13.62-.49-.57.97-.83-.32 1.85-4.6.83.32-.41 1.52 2.9.17 1.98-5.07-2.26-1.83-.79 1.42-.83-.33 1.62-4.15.83.33-.21 1.16 10.23 8.96Zm-3.24-.06 1.69.15-1.37-.98-4.85-3.94-1.7 4.43 6.23.34ZM620.18 454.71l.83-1.2.83.32-1.01 2.28c-.23.44-.33.82-.52 1.18-.28.64-.43 1.21-.68 1.75-.74 1.64-1.52 2.65-2.46 3.11a4 4 0 0 1-3.22-.15 5.11 5.11 0 0 1-2.1-1.68 4.56 4.56 0 0 1-.77-2.45c-.05-.93.2-1.88.65-2.78.2-.35.27-.64.47-1 .2-.35.25-.54.37-.6l-3.75-1.62-1.2 2.22-.83-.32 2.5-5.54.83.32-.5 1.5 10.56 4.66Zm-7.55.83a3.3 3.3 0 0 0-.19 2.6c.27.88 1.02 1.5 2.3 2.04 1 .47 1.81.48 2.39.23.7-.32 1.18-1 1.65-2 .2-.36.3-.74.43-1.21l.15-.57-6.11-2.66c-.08.29-.32.83-.62 1.57ZM603.72 461.8a6.46 6.46 0 0 1 3.18-.87c1.22.02 2.46.35 3.71 1a7.44 7.44 0 0 1 2.92 2.4 6.25 6.25 0 0 1 1.16 3.27 6.13 6.13 0 0 1-.73 3.47c-.44.9-1.1 1.85-1.9 2.95l-.35.52-2.93-1.6.5-1.09 2.37.64c.22-.05.48-.28.77-.6.3-.34.52-.79.86-1.3.4-.71.48-1.4.3-2.27a4.91 4.91 0 0 0-1.13-2.24 9.88 9.88 0 0 0-2.64-1.93c-1.09-.5-2.11-.87-3.09-1.03-.97-.16-1.9-.1-2.72.3-.8.29-1.35.85-1.8 1.75-.27.64-.5 1.09-.5 1.5-.1.38-.08.69.03 1.02l1.34 1.48-.66.94-2.22-1.6.3-1.15c.13-.47.14-.88.27-1.35.1-.38.35-.93.6-1.47a7.16 7.16 0 0 1 2.36-2.73ZM604.09 489.3l-.78-.5.77-1.74-8.1-4.71 1.17 2.45 2.94 8.02.45.22 1.07-1.34.78.51-2.6 4.4-.78-.51.57-1.38-10.04-5.85-.95 1.27-.8-.41 2.62-4.5.8.42-.71 1.54 8.17 4.84-1.22-2.26-2.92-8.12-.62-.37-1.1 1.44-.8-.42 2.65-4.58.81.42-.6 1.47 10.05 5.84.92-1.17.78.51-2.53 4.52ZM597.37 499.93c-.25.55-.38 1.02-.57 1.38l-.57.97c-.85 1.3-1.7 2.19-2.62 2.55-.91.37-1.82.33-2.7-.2a3.07 3.07 0 0 1-1.46-2.13 4.41 4.41 0 0 1 .28-2.58c-.66.95-1.43 1.56-2.3 1.73-.85.18-1.64.07-2.42-.44-1.13-.72-1.81-1.61-1.91-2.76-.13-1.05.23-2.38 1.26-3.94.37-.61.8-1.1 1.24-1.6.42-.4.8-.7 1.07-.94.27-.23.41-.4.5-.37l2.53 2-.52.78-2.3-.92c-.6.34-1.16.9-1.82 1.85a2.49 2.49 0 0 0-.44 2.02c.13.65.7 1.2 1.57 1.75a3 3 0 0 0 2.02.44c.75-.11 1.4-.65 1.94-1.52l.7-1.13.88.53-.54.88c-.31.42-.44.9-.57 1.37-.03.5.03 1.03.22 1.49.18.45.58.87 1.1 1.2.68.5 1.37.58 1.92.42.55-.16 1.09-.62 1.58-1.3.31-.43.53-.88.54-1.29.1-.38.09-.69-.05-.93l-1.3-1.26.66-.94 2.49 1.37c-.06.6-.26.95-.41 1.52ZM587.58 512.9l1.12-1.13.78.51-1.47 2.05c-.29.33-.51.78-.88 1.4-.34.52-.54.87-.71 1.13-.98 1.37-1.92 2.24-2.81 2.5-.89.28-1.77.14-2.52-.47a3.28 3.28 0 0 1-1.4-2c-.2-.77-.1-1.55.23-2.38a4.45 4.45 0 0 1-2.32 1.82c-.87.18-1.75.04-2.5-.57a4 4 0 0 1-1.67-2.89c-.1-1.15.4-2.64 1.65-4.24.29-.33.49-.69.78-1.02.6-.75.95-1.27 1.07-1.34l1.47-2.05.78.51-.77 1.33 9.17 6.83Zm-11.91-3.8a4.35 4.35 0 0 0-1.03 2.67c.01.72.53 1.47 1.3 1.98.76.6 1.52.81 2.17.68.64-.13 1.3-.67 1.93-1.52.78-1.01 1.18-1.72 1.35-1.98l-4.53-3.25c-.12.07-.56.56-1.2 1.41Zm6.05 3.24-.63.85c-.5.68-.67 1.35-.54 2 .13.64.58 1.27 1.26 1.76s1.35.67 1.97.63c.55-.16 1.18-.6 1.84-1.54.3-.33.51-.78.71-1.14l.2-.35-4.17-3.06c-.06.2-.32.43-.64.85ZM578.8 526.64l-1.24 1.6-12.95-4.5-.83.8-.75-.6 3.07-3.87.75.61-.85 1.3 2.68 1.03 3.39-4.3-1.61-2.36-1.12 1.13-.75-.6 2.75-3.45.76.61-.6 1.07 7.3 11.53Zm-3.08-1.03 1.57.62-1.05-1.4-3.5-5.22-2.92 3.7 5.9 2.3ZM561.46 526.77a6.18 6.18 0 0 1 3.36-.01 9.2 9.2 0 0 1 3.36 1.92 7.16 7.16 0 0 1 2.24 3.04c.4 1.13.5 2.28.3 3.44a7 7 0 0 1-1.56 3.15c-.6.76-1.53 1.53-2.57 2.37l-.5.37-2.43-2.38.86-.89 2.12 1.18c.22-.04.56-.16.94-.46.36-.2.78-.6 1.12-1.13.56-.56.86-1.3.87-2.1.1-.8-.1-1.56-.58-2.4a7.96 7.96 0 0 0-2.08-2.5 9.97 9.97 0 0 0-2.7-1.74 5.84 5.84 0 0 0-2.64-.4c-.83.08-1.56.5-2.17 1.25-.43.5-.75.92-.85 1.3-.2.36-.18.67-.26.95l.86 1.76-.92.77-1.69-2.08c.15-.16.35-.52.6-1.06.22-.45.41-.8.61-1.16.2-.36.51-.78.95-1.28a5.44 5.44 0 0 1 2.75-1.9ZM557.54 546.7a5.7 5.7 0 0 1 .1 3.09 5 5 0 0 1-1.5 2.55 5.83 5.83 0 0 1-2.8 1.7c-.99.24-2.08.15-3.1-.22a9.93 9.93 0 0 1-3.05-1.94 8.09 8.09 0 0 1-2.26-3.36 5.67 5.67 0 0 1-.32-3.34 5.91 5.91 0 0 1 1.48-2.86 6.86 6.86 0 0 1 2.82-1.8 5.33 5.33 0 0 1 3.1.22 9.94 9.94 0 0 1 3.04 1.94l2.12-2.18-3.97-3.82-1.28.98-.64-.67 3.55-3.74.66.58-.95 1.28 8.33 8.04 1.16-.91.64.67-3.52 3.64-.64-.67.96-1.28-3.64-3.52-2.12 2.18a10.07 10.07 0 0 1 1.83 3.45Zm-1.17 1.73c-.3-1.2-1.15-2.55-2.61-3.96a7.8 7.8 0 0 0-3.88-2.26 3.36 3.36 0 0 0-3.21.97c-.85.9-1.1 1.85-.82 3.05.3 1.2 1.15 2.54 2.7 3.98 1.3 1.26 2.53 2 3.76 2.33a2.94 2.94 0 0 0 3.1-.9c.84-.9 1.13-1.94.96-3.21ZM539.27 557.5c-.79-.11-1.83-.4-3.07-.72-.85-.23-1.52-.4-2-.54-.37-.1-.69-.08-.93.06l-.7.32-.63-.68 1.65-1.6c.24-.13.58-.25 1.25-.07l2.56.7c1.21.42 2.16.67 2.95.78.66.18 1.19.12 1.48-.21l.83-.8-3.64-3.93-1.37.96-.64-.68 3.78-3.47.64.68-1.02 1.15 7.9 8.53 1.25-.88.63.68-3.66 3.4-.63-.68.95-1.27-3.63-3.93-1.21 1.1.89 6.55 1.25-.88.64.68-3.4 3.16-.63-.68.93-1.18-.75-6.71c-.17.25-.89.27-1.67.16ZM529.99 558.68a4.92 4.92 0 0 1 3.09.62 8.98 8.98 0 0 1 2.92 2.42 8.11 8.11 0 0 1 1.83 3.44c.29 1.2.3 2.32-.08 3.34a6.37 6.37 0 0 1-1.86 2.76 5.72 5.72 0 0 1-4.59 1.52c-1.57-.22-3.03-1.22-4.53-2.84a8.1 8.1 0 0 1-1.83-3.45 5.8 5.8 0 0 1 .1-3.43 5.3 5.3 0 0 1 1.87-2.76c1-1.06 2.03-1.5 3.08-1.62Zm6.56 8.58c-.17-1.27-.9-2.69-2.25-4.16a8.61 8.61 0 0 0-3.65-2.72 3.1 3.1 0 0 0-3.2.57c-.93.77-1.3 1.8-1.13 3.06.17 1.27.9 2.69 2.22 4.26a8.61 8.61 0 0 0 3.65 2.71c1.24.33 2.31.11 3.23-.66.93-.77 1.3-1.8 1.13-3.06ZM527.86 576.14l1.32-.77.61.77-1.93 1.52c-.37.21-.78.61-1.22 1.1-.4.4-.8.7-1.04.85-1.4 1.05-2.46 1.58-3.39 1.63a2.71 2.71 0 0 1-2.34-1.13 3.33 3.33 0 0 1 .08-4.46 4 4 0 0 1-2.75 1.1 3.05 3.05 0 0 1-2.32-1.24 4.15 4.15 0 0 1-.85-3.28c.21-1.17 1.17-2.44 2.71-3.65.39-.3.75-.52 1.02-.75.77-.6 1.25-.89 1.4-1.05l1.94-1.52.5.75-1.1 1.12 7.36 9Zm-10.39-6.86c-1.01.75-1.53 1.52-1.64 2.31-.1.79.1 1.55.7 2.33.61.77 1.23 1.14 1.92 1.22.69.09 1.38-.24 2.28-.91a10.32 10.32 0 0 0 1.84-1.55l-3.41-4.38c-.38-.1-.89.28-1.69.98Zm4.93 4.78-.77.61a2.8 2.8 0 0 0-1.1 1.84c-.09.7.14 1.37.77 2.05.54.65 1.15 1.02 1.75 1.08.6.05 1.3-.27 2.19-.95.38-.3.67-.63 1.06-.93l.27-.24-3.18-4.1c-.33.1-.6.34-.99.64Z"/>
      <circle cx="113.2" cy="108.15" r="2" fill="#313131" style="mix-blend-mode:overlay"/>
      <circle cx="517.7" cy="82.52" r="2" fill="#313131" style="mix-blend-mode:overlay"/>
    </g>
  </g>
  <defs>
    <clipPath id="a">
      <path fill="#fff" d="M0 0h660v660H0z"/>
    </clipPath>
  </defs>
</svg>
