<svg xmlns="http://www.w3.org/2000/svg" width="529" height="600" fill="none">
  <path fill="#FBCE51" d="m329.28 326-68.42-53.47-140.37 83.63 72.07-83.63L61 363l28.5-46.5-78 11.5 81-69L0 254l140.19-50.79L14.3 171.85l147.45-4.4-93.53-42.91 71.97 6.38L2.63 24.98l182.39 81.52-29.5-87.31 51.73 59.41L228 46.64l27.65 49.84 18.1-35.34 9.37 40.13 60.45-35.25-21.65 64.9 31.82-19.18-24.45 35.3 199.71-2.17-199.71 39 45.82 11.1-36.8 2.78 144.41 51.38-135.21-9.63 60.08 51.74-85.67-21.74 7.37 56.5Z"/>
  <path fill="#fff" fill-rule="evenodd" d="m102.86 289.5 15.75-40.22 34.75-27.53 26.25-12.25 28.34-4.96 13.43-21.35 13.72-28.14 41.65-19.93 38.38 8.97 35.95 39.12v27.9l-17.28 16.95-4.5 20.38-10.08 4.88 7.86 11.51 15.42 19.14-4.99 20.36 18.2 19.67 3.74 27.15h21.43l4.2 5.66 1.26-4.88 24.71-5.92 13.31-16.04h17.13l-4.36 145.45-293.23-9.91v-19.12l-41.04-10.92V289.5Zm45.67 153.33v18.2l283.97 9.6V334.6h-5.96l-12.9 15.56-23.5 5.62-2.99 11.59-8.6-11.59H355.7l-5.62-25.81-17.21-24.16v-21.84l-9.27-15.89-10.26-6.95 1.65-10.92 10.26-4.97 4.3-19.52 16.89-16.55v-24.16l-33.76-36.74-35.94-4.18-38.2 14.44-12.9 26.48-8.94 24.16h-7.94l-13.57 4.96h-14.56l-24.82 11.59-33.43 26.47-14.9 33.76V431.9l41.04 10.93Z" clip-rule="evenodd"/>
  <path fill="url(#a)" fill-rule="evenodd" d="m506.34 489.99-58.64 64.64-15.5-4.48-20.86.37-33.41-11.49-15.11-1.13-.14 2.7-9.83 11.74-16.31-5.4-29.67 8.95-10.84-6.46-4.43 1.15-3.37-1.56-4.5 5.38-4.08 5.7 1.3 6.82-5.02 4.22-1.51 6.17-6.8 5.1-5.12 4.25-7.57-.67-11.34-9.49-7.4-8.18-6.35-11.87-.3-7.13 6.72-5.69 6.84-4.3 6.66-3.83 6.3-.8 15.38-4.09.66-.55-.82-1.88 1.43-8.58 6.75.21.4-.73-10.08-8.43 14.3-22.32 32.72-40 69.22-24.04 35.34 26.87 54.9 31.93 30.08 6.9Zm-10.11 3.17-21.95-5.03-55.84-32.47-33.37-24.07-32.78 13.27-34.53 11.53-29.36 35.12-11.57 18.06 9.83 8.21-4.07 7.49-5.36-.17-.4 2.4 1.78 4.1-4.25 3.56-14.54 6.87-4.49-1.83-2.81.35-2.62 3.14-4.88.76-5.59 3.51-4.43 3.75.14 3.29 5.46 10.21 6.71 7.42 9.77 8.17 3.7.33 3.53-2.93 5.36-4.02 1.48-6 3.95-3.34-1.14-5.98 5.53-7.74 7.26-8.69 5.36 2.48 4.75-1.23 10.73 6.4 29.02-8.75 14.47 4.78 6.34-7.59.34-6.37 21.26 1.59 33.17 11.4 20.72-.36 13.06 3.78 50.26-55.4Z" clip-rule="evenodd"/>
  <path fill="#FBCE51" d="m123.58 512.11-4.09 46.6 61.92-82.4 77.06-12.87-58.17-5.6 28.96-43.33-28.96 19.53 14.08-60.2-44.27 59.74-36.09-88.28v73.8L83.5 395.5l17.72 43.1-87.64 8.83 93.78 28.88-53.97 23.23h60.05l-32.23 43.85 42.37-31.27Z"/>
  <defs>
    <linearGradient id="a" x1="351.72" x2="299.41" y1="584.95" y2="424.6" gradientUnits="userSpaceOnUse">
      <stop stop-color="#E8DCD1"/>
      <stop offset="1" stop-color="#fff"/>
    </linearGradient>
  </defs>
</svg>
